Coordinates
version=1
nRows=37
nColumns=38
inDegrees=no

Units are S.I. units (second, meters, Newtons, ...)
If the header above contains a line with 'inDegrees', this indicates whether rotational values are in degrees (yes) or radians (no).

endheader
time	pelvis_tilt	pelvis_list	pelvis_rotation	pelvis_tx	pelvis_ty	pelvis_tz	hip_flexion_r	hip_adduction_r	hip_rotation_r	knee_angle_r	ankle_angle_r	subtalar_angle_r	mtp_angle_r	hip_flexion_l	hip_adduction_l	hip_rotation_l	knee_angle_l	ankle_angle_l	subtalar_angle_l	mtp_angle_l	lumbar_extension	lumbar_bending	lumbar_rotation	arm_flex_r	arm_add_r	arm_rot_r	elbow_flex_r	pro_sup_r	wrist_flex_r	wrist_dev_r	arm_flex_l	arm_add_l	arm_rot_l	elbow_flex_l	pro_sup_l	wrist_flex_l	wrist_dev_l
15	2.79792	1.42041	-1.06615	0.600755	-0.432256	0.939579	-0.133718	0.0917998	-0.06436	0.498971	-0.183409	0	0	0.182487	-0.0867336	-0.0586982	0.482712	-0.266763	0	0	-0.344348	0.159173	0.036696	0.949271	-0.521625	0.539092	1.17432	1.5708	0	0	-0.0294561	-0.871722	-0.513856	1.1196	1.5708	0	0
15.01	2.79095	1.41923	-1.05893	0.601913	-0.438422	0.939923	-0.133883	0.0955552	-0.0693701	0.485516	-0.181536	0	0	0.181669	-0.0876417	-0.0545423	0.467663	-0.276732	0	0	-0.347976	0.161415	0.0427086	0.94981	-0.523957	0.535527	1.1776	1.5708	0	0	-0.0266169	-0.870013	-0.516229	1.1257	1.5708	0	0
15.02	2.78584	1.41984	-1.05357	0.60297	-0.4446	0.940116	-0.130716	0.0976716	-0.071738	0.475767	-0.180594	0	0	0.182209	-0.0878807	-0.0524172	0.452456	-0.287438	0	0	-0.350005	0.162482	0.0482326	0.950083	-0.526144	0.531516	1.18087	1.5708	0	0	-0.0246721	-0.868414	-0.518594	1.13317	1.5708	0	0
15.03	2.78158	1.42203	-1.04872	0.603876	-0.450697	0.940189	-0.126062	0.0990354	-0.0690555	0.465551	-0.179829	0	0	0.184008	-0.087713	-0.05261	0.437166	-0.298549	0	0	-0.35039	0.162831	0.0524894	0.950544	-0.527818	0.528141	1.18341	1.5708	0	0	-0.0239654	-0.866259	-0.522301	1.14131	1.5708	0	0
15.04	2.78141	1.42437	-1.04738	0.604695	-0.456644	0.940254	-0.120096	0.0993264	-0.0665367	0.458479	-0.179225	0	0	0.18545	-0.0874092	-0.0548222	0.421966	-0.310216	0	0	-0.350489	0.16253	0.0553186	0.951163	-0.528762	0.525574	1.18495	1.5708	0	0	-0.0245787	-0.864254	-0.527046	1.15006	1.5708	0	0
15.05	2.78615	1.42649	-1.04995	0.605408	-0.46247	0.94036	-0.113153	0.0987176	-0.0665613	0.454873	-0.179182	0	0	0.186368	-0.086777	-0.0576621	0.407323	-0.322717	0	0	-0.350843	0.161744	0.056829	0.95145	-0.529682	0.523423	1.18685	1.5708	0	0	-0.0260118	-0.862976	-0.531632	1.15949	1.5708	0	0
15.06	2.79211	1.42891	-1.05254	0.605939	-0.468272	0.940465	-0.105206	0.0977006	-0.0683561	0.453185	-0.179064	0	0	0.188095	-0.0856464	-0.0591908	0.394203	-0.335466	0	0	-0.350618	0.160976	0.0567252	0.951467	-0.530116	0.521105	1.18872	1.5708	0	0	-0.0278255	-0.862189	-0.535727	1.16875	1.5708	0	0
15.07	2.7965	1.43264	-1.05266	0.606288	-0.474128	0.940437	-0.0949524	0.0960524	-0.0707618	0.454198	-0.177887	0	0	0.192569	-0.0836606	-0.0581344	0.384225	-0.347412	0	0	-0.348748	0.160068	0.0553662	0.951609	-0.530372	0.519105	1.19003	1.5708	0	0	-0.0290863	-0.861529	-0.539048	1.17736	1.5708	0	0
15.08	2.80127	1.43581	-1.05255	0.606647	-0.479816	0.94048	-0.0851015	0.0949742	-0.0727653	0.455985	-0.176783	0	0	0.197599	-0.081957	-0.0537316	0.378012	-0.357667	0	0	-0.347026	0.159155	0.0534827	0.950675	-0.530204	0.51619	1.19117	1.5708	0	0	-0.0295111	-0.861444	-0.541357	1.18516	1.5708	0	0
15.09	2.8092	1.438	-1.05493	0.606921	-0.485434	0.940696	-0.0771219	0.0943131	-0.0740756	0.45569	-0.176347	0	0	0.203093	-0.0806567	-0.0463845	0.377088	-0.365139	0	0	-0.346397	0.158349	0.0512777	0.949208	-0.530468	0.512868	1.19271	1.5708	0	0	-0.0291931	-0.861971	-0.542232	1.19247	1.5708	0	0
15.1	2.82594	1.43877	-1.0645	0.606976	-0.491037	0.941079	-0.0714523	0.0932535	-0.0749813	0.454356	-0.176782	0	0	0.208859	-0.0794389	-0.0372349	0.382896	-0.3684	0	0	-0.347449	0.157757	0.0475799	0.948282	-0.531068	0.510355	1.19411	1.5708	0	0	-0.0277945	-0.863504	-0.541237	1.19867	1.5708	0	0
15.11	2.8485	1.4387	-1.07843	0.606838	-0.496621	0.941528	-0.0672062	0.0920203	-0.0753754	0.453015	-0.177281	0	0	0.215693	-0.0787224	-0.0295298	0.395538	-0.36748	0	0	-0.349187	0.157323	0.0419833	0.947678	-0.530927	0.508123	1.19486	1.5708	0	0	-0.02618	-0.865838	-0.539508	1.20397	1.5708	0	0
15.12	2.86846	1.43838	-1.08932	0.606612	-0.502113	0.941958	-0.0633234	0.0916432	-0.0745183	0.451851	-0.177669	0	0	0.223836	-0.0788714	-0.0238043	0.414239	-0.361849	0	0	-0.350605	0.157419	0.0354768	0.946899	-0.529806	0.505445	1.19516	1.5708	0	0	-0.0250203	-0.868525	-0.537855	1.20852	1.5708	0	0
15.13	2.88905	1.43713	-1.10079	0.606304	-0.507515	0.942473	-0.0606959	0.0913328	-0.0733197	0.450396	-0.178088	0	0	0.230851	-0.079295	-0.0199348	0.435565	-0.35363	0	0	-0.352837	0.157895	0.0288525	0.946327	-0.528611	0.502917	1.19529	1.5708	0	0	-0.0234292	-0.871427	-0.535644	1.21217	1.5708	0	0
15.14	2.91135	1.43544	-1.11392	0.605864	-0.512841	0.943034	-0.0585924	0.0900974	-0.0730582	0.448532	-0.179352	0	0	0.236531	-0.0791359	-0.0158518	0.458874	-0.342756	0	0	-0.355211	0.158419	0.0221146	0.945723	-0.527502	0.500532	1.19491	1.5708	0	0	-0.0213109	-0.875119	-0.531848	1.21459	1.5708	0	0
15.15	2.93412	1.43378	-1.12794	0.605346	-0.518056	0.943579	-0.0566969	0.0883641	-0.0740338	0.44644	-0.180915	0	0	0.241386	-0.0788645	-0.0135987	0.484397	-0.331154	0	0	-0.357171	0.15877	0.0158574	0.944974	-0.52685	0.498685	1.19418	1.5708	0	0	-0.0182395	-0.8791	-0.526422	1.21587	1.5708	0	0
15.16	2.95237	1.43164	-1.13933	0.604923	-0.523221	0.944091	-0.0549711	0.0874814	-0.0741197	0.444209	-0.182147	0	0	0.245534	-0.0805697	-0.0161504	0.51352	-0.319534	0	0	-0.359339	0.159444	0.0114879	0.944686	-0.526231	0.497358	1.1929	1.5708	0	0	-0.0140352	-0.882517	-0.520381	1.21606	1.5708	0	0
15.17	2.96457	1.42923	-1.14567	0.604457	-0.528233	0.944582	-0.0538277	0.0869986	-0.0749193	0.44147	-0.183951	0	0	0.249929	-0.0846512	-0.023832	0.547792	-0.305081	0	0	-0.361165	0.160851	0.00801805	0.943771	-0.525477	0.495639	1.19196	1.5708	0	0	-0.00976587	-0.885596	-0.513892	1.21528	1.5708	0	0
15.18	2.97402	1.42683	-1.15004	0.60398	-0.533115	0.945075	-0.0530399	0.0864475	-0.0764959	0.438207	-0.187116	0	0	0.252958	-0.089477	-0.0313858	0.582008	-0.290727	0	0	-0.362658	0.162217	0.00530429	0.942303	-0.525329	0.494103	1.19143	1.5708	0	0	-0.00512242	-0.888845	-0.506545	1.21384	1.5708	0	0
15.19	2.98239	1.42468	-1.15408	0.603511	-0.537882	0.945538	-0.0523588	0.0857088	-0.078001	0.434004	-0.189901	0	0	0.254216	-0.0942972	-0.0358903	0.613984	-0.278106	0	0	-0.363624	0.163199	0.00331736	0.940197	-0.525773	0.492703	1.19135	1.5708	0	0	7.93463e-05	-0.892145	-0.49859	1.21172	1.5708	0	0
15.2	2.98632	1.4228	-1.15451	0.603089	-0.542543	0.945927	-0.0515132	0.0854093	-0.0794639	0.428617	-0.19312	0	0	0.254842	-0.100123	-0.0384428	0.645007	-0.266708	0	0	-0.364013	0.164211	0.00221781	0.937521	-0.526392	0.490899	1.19148	1.5708	0	0	0.00522605	-0.895799	-0.490195	1.20931	1.5708	0	0
15.21	2.98618	1.42048	-1.15243	0.602805	-0.547248	0.946306	-0.0507933	0.0858413	-0.0793894	0.423767	-0.196545	0	0	0.254077	-0.10749	-0.040111	0.674285	-0.25816	0	0	-0.365036	0.165462	0.0026051	0.935351	-0.526932	0.489303	1.19147	1.5708	0	0	0.0107532	-0.899369	-0.481779	1.2064	1.5708	0	0
15.22	2.98463	1.41905	-1.14947	0.602515	-0.551941	0.946539	-0.0489638	0.0857988	-0.0790817	0.419728	-0.199846	0	0	0.253554	-0.115063	-0.0409601	0.703006	-0.25151	0	0	-0.36504	0.166343	0.00320697	0.932678	-0.527305	0.487171	1.19188	1.5708	0	0	0.0162518	-0.902655	-0.473596	1.20344	1.5708	0	0
15.23	2.98287	1.4184	-1.14643	0.602203	-0.556545	0.946659	-0.0466598	0.085291	-0.0791795	0.41512	-0.203065	0	0	0.253109	-0.122581	-0.0415625	0.731594	-0.245265	0	0	-0.364059	0.166785	0.00366084	0.929536	-0.527495	0.484554	1.19221	1.5708	0	0	0.0207643	-0.906307	-0.465929	1.2006	1.5708	0	0
15.24	2.97983	1.41778	-1.14225	0.60182	-0.561036	0.946713	-0.044734	0.0848502	-0.0810031	0.409194	-0.205707	0	0	0.252054	-0.130167	-0.0408447	0.760627	-0.238516	0	0	-0.362647	0.167232	0.00397725	0.926493	-0.527416	0.482082	1.19178	1.5708	0	0	0.0246115	-0.90963	-0.458886	1.19801	1.5708	0	0
15.25	2.97548	1.41669	-1.13714	0.601386	-0.565454	0.946759	-0.0432949	0.0849009	-0.0826271	0.403674	-0.208432	0	0	0.249651	-0.137957	-0.0391255	0.789368	-0.23118	0	0	-0.36151	0.167956	0.00456806	0.923647	-0.527286	0.479937	1.19136	1.5708	0	0	0.0280535	-0.9126	-0.452161	1.19562	1.5708	0	0
15.26	2.96789	1.41461	-1.12992	0.601037	-0.569678	0.946881	-0.0430423	0.0860505	-0.0823905	0.397394	-0.212395	0	0	0.245136	-0.147567	-0.0388963	0.816937	-0.223841	0	0	-0.360878	0.16917	0.00642254	0.920967	-0.527441	0.478634	1.1906	1.5708	0	0	0.0311661	-0.915443	-0.445383	1.1928	1.5708	0	0
15.27	2.96121	1.41278	-1.12316	0.600515	-0.574088	0.946878	-0.0428447	0.0863499	-0.0821868	0.390611	-0.216045	0	0	0.240625	-0.156167	-0.0359123	0.843973	-0.216452	0	0	-0.360036	0.170631	0.00736002	0.919687	-0.527437	0.478502	1.18901	1.5708	0	0	0.0341312	-0.918229	-0.43886	1.18976	1.5708	0	0
15.28	2.95224	1.41211	-1.11324	0.5998	-0.578441	0.946755	-0.0412851	0.0862369	-0.0831331	0.383978	-0.219389	0	0	0.236837	-0.163758	-0.0302918	0.869587	-0.209618	0	0	-0.357848	0.172149	0.00686821	0.918192	-0.527202	0.478441	1.18752	1.5708	0	0	0.0350591	-0.920595	-0.434518	1.18778	1.5708	0	0
15.29	2.93904	1.4125	-1.09862	0.59893	-0.582799	0.946525	-0.0376686	0.086148	-0.0847754	0.378969	-0.222651	0	0	0.233772	-0.170497	-0.0221207	0.893703	-0.203388	0	0	-0.354485	0.173909	0.00567315	0.916438	-0.526797	0.478261	1.18624	1.5708	0	0	0.0348312	-0.92181	-0.432676	1.18651	1.5708	0	0
15.3	2.92213	1.4125	-1.0809	0.598058	-0.587269	0.946302	-0.0334278	0.0867603	-0.0849462	0.375052	-0.226116	0	0	0.229512	-0.177813	-0.0132573	0.914993	-0.198129	0	0	-0.351376	0.176177	0.00503987	0.91533	-0.526187	0.47854	1.18428	1.5708	0	0	0.0346461	-0.922039	-0.432072	1.18543	1.5708	0	0
15.31	2.90544	1.41245	-1.06381	0.59719	-0.5917	0.946088	-0.0289057	0.0871227	-0.0848887	0.371994	-0.228992	0	0	0.223718	-0.1855	-0.00507317	0.933188	-0.194764	0	0	-0.348227	0.178167	0.00436015	0.914049	-0.525113	0.478744	1.18255	1.5708	0	0	0.0337991	-0.921546	-0.433199	1.18454	1.5708	0	0
15.32	2.8866	1.41289	-1.04443	0.596235	-0.59606	0.945822	-0.0236122	0.0875643	-0.0851995	0.369183	-0.232551	0	0	0.217468	-0.192973	0.00347067	0.948954	-0.190754	0	0	-0.344156	0.180188	0.00334299	0.912556	-0.524188	0.479429	1.18079	1.5708	0	0	0.0324756	-0.920414	-0.435147	1.18368	1.5708	0	0
15.33	2.86731	1.41356	-1.02461	0.595153	-0.600411	0.945554	-0.0175986	0.0877748	-0.0854827	0.367153	-0.235721	0	0	0.210166	-0.199868	0.0119771	0.961482	-0.187351	0	0	-0.339967	0.182035	0.00228044	0.910866	-0.523924	0.480256	1.17954	1.5708	0	0	0.030394	-0.918756	-0.437971	1.18324	1.5708	0	0
15.34	2.85024	1.41393	-1.00647	0.593838	-0.604893	0.945363	-0.0118105	0.0874525	-0.0863732	0.36549	-0.239178	0	0	0.201323	-0.205698	0.0212474	0.970524	-0.18476	0	0	-0.336442	0.18404	0.000655592	0.909693	-0.524157	0.481567	1.17804	1.5708	0	0	0.0277955	-0.916237	-0.441448	1.18291	1.5708	0	0
15.35	2.83308	1.41433	-0.987754	0.592326	-0.609387	0.94512	-0.00564099	0.0867823	-0.0875118	0.364631	-0.24369	0	0	0.191391	-0.210669	0.032695	0.979185	-0.175739	0	0	-0.332464	0.186424	-0.00200349	0.909002	-0.524111	0.483641	1.17584	1.5708	0	0	0.0247463	-0.913703	-0.445068	1.18188	1.5708	0	0
15.36	2.82042	1.41477	-0.97371	0.590746	-0.613848	0.94495	0.000502234	0.0852674	-0.0877998	0.36456	-0.246753	0	0	0.180043	-0.215457	0.0385758	0.978538	-0.180238	0	0	-0.328998	0.188045	-0.00455667	0.907578	-0.524179	0.484557	1.17469	1.5708	0	0	0.0226423	-0.911556	-0.447154	1.18015	1.5708	0	0
